<?xml version="1.0" encoding="UTF-8" standalone="no"?>
<!-- Created with Inkscape (http://www.inkscape.org/) -->

<svg
   width="800"
   height="800"
   viewBox="0 0 211.66667 211.66666"
   version="1.1"
   id="svg1093"
   xml:space="preserve"
   inkscape:version="1.2.2 (b0a8486541, 2022-12-01)"
   sodipodi:docname="logo.svg"
   xmlns:inkscape="http://www.inkscape.org/namespaces/inkscape"
   xmlns:sodipodi="http://sodipodi.sourceforge.net/DTD/sodipodi-0.dtd"
   xmlns="http://www.w3.org/2000/svg"
   xmlns:svg="http://www.w3.org/2000/svg"><sodipodi:namedview
     id="namedview1095"
     pagecolor="#ffffff"
     bordercolor="#000000"
     borderopacity="0.25"
     inkscape:showpageshadow="2"
     inkscape:pageopacity="0.0"
     inkscape:pagecheckerboard="0"
     inkscape:deskcolor="#d1d1d1"
     inkscape:document-units="mm"
     showgrid="false"
     inkscape:zoom="1.1893044"
     inkscape:cx="230.80718"
     inkscape:cy="348.10264"
     inkscape:window-width="2468"
     inkscape:window-height="1428"
     inkscape:window-x="0"
     inkscape:window-y="0"
     inkscape:window-maximized="1"
     inkscape:current-layer="layer1" /><defs
     id="defs1090" /><g
     inkscape:label="Layer 1"
     inkscape:groupmode="layer"
     id="layer1"
     transform="translate(-5.8362202,-48.813804)"><path
       id="path1228"
       style="fill:#ffffff;stroke-width:0.264583"
       d="m 122.05469,60.367188 c -0.81129,0.16891 -1.51708,0.845938 -1.45606,1.715273 -1.36428,8.918317 -2.33376,17.906507 -3.48009,26.866075 -0.23868,1.957558 -0.4959,3.912689 -0.75331,5.86787 -1.51153,-0.546456 -2.86278,-1.588834 -4.49414,-1.753906 -1.4936,0.151312 -2.71677,1.089425 -4.00781,1.746094 -0.73564,0.271867 -1.61216,-0.345953 -1.45508,-1.150092 -0.81509,-6.573054 -1.24766,-13.201579 -2.32422,-19.736627 -0.55409,-0.738472 -1.5836,-0.860013 -2.38918,-1.214336 -6.668324,-2.14787 -13.215498,-4.647074 -19.867632,-6.840798 -1.262652,-0.361287 -2.786793,-1.077398 -3.965728,-0.117732 -6.133948,3.777727 -12.120139,7.795287 -18.187612,11.66896 -0.939603,0.367376 -1.508734,-0.757987 -1.536999,-1.542291 -0.118071,-0.661997 -0.0868,-1.2768 -0.316517,-1.910834 -3.143214,-1.154229 -6.237708,-2.490954 -9.466796,-3.378906 -1.398276,0.02058 -2.286049,1.296573 -3.340851,2.039224 -4.427996,3.778111 -9.079027,7.307328 -13.303681,11.316244 -0.608884,1.137749 0.131247,2.414237 0.324562,3.572085 3.123123,12.371377 6.565238,24.678009 9.762541,37.037509 0.281715,0.94437 0.164124,2.26175 -0.913313,2.63506 -8.776885,3.78003 -17.422527,7.85598 -26.117149,11.81785 -0.925813,0.52394 -2.021275,0.82844 -2.798696,1.56645 -0.809995,0.98455 -0.608142,2.85435 0.747571,3.2399 6.948682,3.72025 14.211926,6.81415 21.182513,10.48973 0.65174,0.25343 1.451912,0.83347 1.145956,1.63556 -0.523012,1.16826 -1.63311,1.94216 -2.425917,2.92107 -6.822095,7.33885 -13.932386,14.42346 -20.529679,21.9663 -1.049314,1.65733 -0.437939,4.0019 1.060244,5.18608 1.98912,1.82796 4.616673,2.68929 6.893612,4.08036 8.202954,4.48179 16.491341,8.81468 24.636758,13.39598 0.600208,0.26054 1.406375,0.64296 1.268514,1.44082 0.100704,2.89809 -0.286804,5.86963 0.467965,8.70401 0.664748,2.11623 1.939819,4.19748 3.703861,5.65738 4.849528,3.17348 10.008844,5.83187 15.052863,8.67602 13.723432,7.58051 27.407422,15.23323 41.14378,22.78976 1.48996,0.83016 3.1656,1.36518 4.88685,1.2523 2.02981,0.0685 4.1688,0.008 5.9641,-1.0643 4.00164,-1.99777 7.78198,-4.40106 11.71143,-6.53279 14.02186,-7.93836 28.1049,-15.76856 42.14077,-23.68073 2.40373,-1.41079 4.56854,-3.42118 5.56508,-6.08129 1.17676,-2.82043 1.12255,-5.83571 1.11602,-8.83207 0.0689,-0.74438 -0.0321,-1.69766 0.76029,-2.07316 1.83689,-1.32994 3.9366,-2.23652 5.88699,-3.38375 8.67001,-4.77213 17.41248,-9.42154 25.98718,-14.3598 0.85678,-0.85937 1.27645,-2.0986 1.47882,-3.27118 0.12179,-1.3841 -0.81858,-2.50175 -1.72174,-3.42404 -5.09063,-5.7478 -10.5499,-11.15393 -15.77583,-16.77701 -1.93457,-2.05665 -3.89326,-4.1079 -5.63482,-6.32786 -0.47883,-0.71133 -0.067,-1.72675 0.77221,-1.90037 6.77032,-3.45139 13.77762,-6.43032 20.47882,-10.01581 0.74905,-0.4677 1.97255,-0.89082 1.89698,-1.94163 0.0859,-0.66266 0.0793,-1.46505 -0.60306,-1.81244 -1.53169,-1.13275 -3.28981,-1.83534 -4.9533,-2.66432 -7.48538,-3.5514 -15.15905,-6.69261 -22.64432,-10.23519 -0.84526,-0.43065 -2.02394,-0.87046 -2.19385,-1.91109 0.21954,-2.07248 0.9541,-4.04635 1.41154,-6.07244 3.01296,-11.63086 6.23153,-23.210125 9.10995,-34.874829 -0.0739,-0.866058 -0.91831,-1.406372 -1.42955,-2.04043 -4.06547,-4.056646 -8.39581,-7.836128 -12.58201,-11.765081 -0.90579,-0.787351 -1.94174,-1.698546 -3.2404,-1.456208 -0.68784,0.03683 -1.23258,0.535436 -1.32812,1.216797 -1.20347,3.798677 -2.0543,7.698571 -3.19141,11.517579 -1.25099,0.535446 -2.40608,-0.376841 -3.50835,-0.841564 C 153.6698,75.117788 140.67257,68.815603 127.6881,62.49503 c -1.66362,-0.72985 -3.26628,-1.64013 -5.01037,-2.162999 -0.21228,-0.04855 -0.41513,-0.01535 -0.62304,0.03516 z" /><path
       style="fill:#000000;stroke-width:0.264583"
       d="m 108.25485,252.74127 c -1.39464,-0.44222 -2.21337,-0.86985 -10.31875,-5.38956 -7.96978,-4.4441 -26.64642,-14.803 -38.9684,-21.61363 -4.69773,-2.59654 -9.09448,-5.20787 -9.77054,-5.80297 -1.60306,-1.41107 -3.12822,-3.79822 -3.78475,-5.92383 -0.41933,-1.35761 -0.52526,-2.45736 -0.52526,-5.45283 v -3.75223 l -1.65365,-0.9485 c -0.9095,-0.52168 -6.29708,-3.44845 -11.97239,-6.50394 -5.67531,-3.05548 -11.27125,-6.07946 -12.43542,-6.71995 -1.16417,-0.64049 -2.8224,-1.51932 -3.68496,-1.95295 -2.11353,-1.06251 -3.98879,-2.88227 -4.35694,-4.228 -0.40909,-1.49541 -0.35132,-2.75668 0.17748,-3.87452 0.25085,-0.53026 4.86671,-5.59042 10.25747,-11.2448 12.50458,-13.11606 12.822,-13.45656 12.81276,-13.74418 -0.004,-0.13236 -5.01139,-2.62191 -11.12698,-5.53233 -6.11558,-2.91041 -11.36079,-5.54805 -11.65603,-5.86141 -1.06127,-1.12642 -1.08263,-3.21939 -0.0448,-4.39419 0.26307,-0.2978 1.31174,-0.92655 2.33038,-1.39723 1.01865,-0.47068 3.93568,-1.80998 6.4823,-2.97622 2.54661,-1.16624 5.46364,-2.5025 6.48229,-2.96946 6.42577,-2.94565 13.31668,-6.03289 13.82448,-6.19357 0.76713,-0.24274 0.75389,-0.48629 -0.22407,-4.12146 -6.02864,-22.409124 -9.5473,-35.807057 -9.65865,-36.77708 -0.10235,-0.891715 -0.009,-1.392695 0.37085,-1.995519 0.27913,-0.442693 3.17345,-2.99792 6.43182,-5.678284 3.25837,-2.680364 6.72858,-5.560494 7.71158,-6.400292 1.91347,-1.63473 2.65861,-1.956834 3.93591,-1.701374 0.6322,0.126439 5.39676,1.861886 9.54613,3.477086 0.32389,0.126082 0.50293,0.620791 0.62948,1.73937 0.0973,0.859751 0.22583,1.56318 0.28569,1.56318 0.0599,0 0.43143,-0.227552 0.82572,-0.505669 1.05478,-0.744001 15.0273,-9.766588 16.70861,-10.789385 2.33743,-1.421927 1.81245,-1.524304 13.50932,2.634464 4.29286,1.526304 8.81724,3.088978 10.05417,3.472606 3.22294,0.99958 4.22353,1.489551 4.61488,2.25983 0.19317,0.38019 0.78784,4.988906 1.35081,10.468778 0.55315,5.384271 1.03765,9.832337 1.07666,9.884592 0.039,0.05226 0.42711,-0.158609 0.86243,-0.46859 0.97489,-0.694184 2.77476,-1.347083 3.704,-1.343625 0.38189,0.0013 1.31336,0.290795 2.06995,0.643054 l 1.37561,0.640468 0.14936,-1.106074 c 0.0821,-0.608341 0.68832,-5.511387 1.34706,-10.895658 1.64073,-13.410808 2.48738,-19.645843 2.7679,-20.383655 0.28369,-0.746149 1.1849,-1.377995 2.27699,-1.596414 1.04146,-0.20829 1.84503,0.139798 13.43044,5.817793 5.2216,2.559095 9.52133,4.652902 9.55497,4.652902 0.0336,0 3.02423,1.443379 6.64577,3.207509 6.22259,3.031154 13.94454,6.768414 16.45052,7.961704 0.62406,0.297161 1.16896,0.495265 1.21089,0.440229 0.0419,-0.05504 0.71214,-2.540849 1.48937,-5.524026 0.77724,-2.983177 1.5775,-5.756494 1.77836,-6.162929 0.41093,-0.831508 1.27129,-1.245404 2.58881,-1.245404 1.40915,0 1.94819,0.333547 4.7785,2.95683 1.46401,1.356921 4.78302,4.423735 7.37559,6.815145 4.67983,4.316714 5.70344,5.483317 5.70317,6.499899 -8e-5,0.291042 -1.77084,7.196667 -3.93502,15.345829 -5.72388,21.55307 -6.6462,25.10207 -6.6462,25.57401 0,0.29624 1.53551,1.10444 5.09323,2.68075 26.14551,11.58424 25.33385,11.14668 25.33385,13.65751 0,2.35905 0.54132,2.02542 -16.13661,9.94562 -3.85468,1.83055 -7.10658,3.42635 -7.22645,3.54622 -0.22818,0.22818 3.72505,4.51457 15.39208,16.68928 4.19952,4.38226 7.17335,7.70301 7.46867,8.33994 0.26988,0.58209 0.49331,1.54098 0.4965,2.13087 0.006,1.12864 -0.98522,3.44008 -1.78601,4.16435 -0.25142,0.22739 -6.64838,3.7954 -14.21547,7.92891 -7.56708,4.1335 -14.68049,8.02208 -15.80759,8.64128 -1.12709,0.61921 -2.12274,1.24472 -2.21255,1.39004 -0.0898,0.14531 -0.14534,1.48982 -0.12341,2.98778 0.0738,5.03809 -1.16868,8.68203 -3.89854,11.43392 -1.15349,1.16281 -2.59281,2.13241 -5.88213,3.9625 -15.09885,8.40061 -42.11477,23.59898 -48.14348,27.08411 -1.96453,1.13568 -4.21856,2.25376 -5.00896,2.48462 -1.73371,0.50639 -6.02816,0.53409 -7.55875,0.0488 z m 0.39688,-30.38087 v -22.54977 l -1.91823,1.98076 c -1.05503,1.08942 -4.88524,5.07533 -8.51157,8.85759 -10.76797,11.23092 -11.07797,11.53645 -12.37013,12.19146 -0.68001,0.3447 -2.05392,0.76175 -3.05313,0.92677 -2.67214,0.44129 -4.13404,-0.0273 -9.62557,-3.08535 -2.53316,-1.41063 -7.34418,-4.08071 -10.69116,-5.9335 -3.34698,-1.8528 -7.06768,-3.91258 -8.26823,-4.57731 -2.44652,-1.3546 -2.43006,-1.36479 -1.88688,1.16797 0.41614,1.94041 1.93703,3.35381 6.05812,5.62998 11.37145,6.2807 47.23029,26.31755 49.07615,27.42228 0.43657,0.26128 0.88305,0.48492 0.99219,0.49697 0.10914,0.0121 0.19844,-10.12547 0.19844,-22.52785 z m -5.55625,14.52832 c -0.3638,-0.18991 -1.22701,-0.67674 -1.91823,-1.08185 l -1.25677,-0.73656 v -2.09153 c 0,-1.15034 0.069,-2.09152 0.15324,-2.09152 0.0843,0 0.97725,0.43831 1.98438,0.97403 l 1.83113,0.97404 v 2.20096 c 0,1.21053 -0.0298,2.20023 -0.0661,2.19934 -0.0364,-8e-4 -0.3638,-0.15701 -0.72761,-0.34691 z m -1.52136,-7.13219 -1.65364,-0.83437 v -1.92787 c 0,-2.29324 0.10742,-2.34099 2.41383,-1.07305 l 1.55492,0.85483 v 1.9233 c 0,1.37073 -0.095,1.91874 -0.33073,1.90742 -0.1819,-0.009 -1.07487,-0.39135 -1.98438,-0.85026 z m 22.8276,10.12254 c 1.45922,-0.84239 5.26921,-3.01186 8.46666,-4.82103 3.19746,-1.80918 10.33793,-5.88276 15.86772,-9.0524 5.52979,-3.16964 12.19729,-6.95403 14.81667,-8.40976 5.36318,-2.98059 6.32329,-3.6323 7.00662,-4.75594 0.43368,-0.71314 0.98733,-3.54796 0.74103,-3.79427 -0.0557,-0.0557 -1.16681,0.50052 -2.46922,1.23595 -1.30241,0.73544 -3.97536,2.23829 -5.93989,3.33967 -1.96453,1.10138 -6.57299,3.71151 -10.241,5.80028 -7.49428,4.26766 -8.8759,4.79662 -11.33921,4.34125 -2.26138,-0.41804 -3.86493,-1.44376 -5.99067,-3.83196 -2.47602,-2.78173 -6.36621,-6.82696 -13.63558,-14.17902 l -5.88617,-5.95312 0.003,4.6302 c 0.002,2.54662 -0.009,9.21412 -0.0235,14.81667 -0.0144,5.60255 -0.0163,13.66502 -0.004,17.9166 l 0.0219,7.73014 2.97656,-1.74082 c 1.63711,-0.95745 4.17047,-2.43004 5.62968,-3.27244 z m -4.36889,-5.08921 0.004,-2.18281 1.90257,-1.10641 c 1.04642,-0.60852 1.99711,-1.04798 2.11265,-0.97657 0.35343,0.21843 0.24755,3.97149 -0.12065,4.27675 -0.37078,0.30739 -3.62929,2.17185 -3.79574,2.17185 -0.0588,0 -0.10506,-0.98226 -0.10285,-2.18281 z m 6.0814,-3.77031 c 0,-1.23693 0.0902,-2.24896 0.20053,-2.24896 0.1103,0 1.91113,-1.01203 4.00185,-2.24896 2.09072,-1.23692 4.07678,-2.24896 4.41346,-2.24896 0.51865,0 0.63826,0.17414 0.78311,1.14004 0.24466,1.63155 0.0713,2.59951 -0.52539,2.93432 -0.28553,0.1602 -0.95073,0.5484 -1.47821,0.86267 -1.56544,0.93266 -7.18288,4.05881 -7.29336,4.05881 -0.0561,0 -0.10199,-1.01203 -0.10199,-2.24896 z M 83.933,215.45234 c 0.44746,-0.3148 4.84573,-4.79909 9.77394,-9.96508 4.9282,-5.16599 10.01551,-10.49521 11.30513,-11.84271 1.28961,-1.3475 2.27693,-2.55974 2.19404,-2.69386 -0.13789,-0.22311 -2.14595,-1.28887 -13.37105,-7.09653 -2.11005,-1.0917 -5.14614,-2.66819 -6.74687,-3.50329 -1.60073,-0.83511 -4.75589,-2.47277 -7.01146,-3.63925 -3.94689,-2.04116 -24.71908,-12.85616 -32.44906,-16.89454 -2.46977,-1.29029 -4.04147,-1.95482 -4.62338,-1.95482 -0.76946,0 -1.21907,0.34536 -3.53427,2.71478 -4.79182,4.90402 -19.04577,19.80116 -19.5658,20.44868 -0.77188,0.96111 -0.25828,1.77777 1.75612,2.79235 1.6902,0.8513 7.0294,3.74653 13.96639,7.57342 11.88746,6.55788 19.87133,10.95899 23.15104,12.76201 2.03729,1.12 7.54943,4.15638 12.2492,6.74752 4.69976,2.59114 8.98601,4.86999 9.525,5.06411 1.18046,0.42515 2.28625,0.25744 3.38103,-0.51279 z m 63.02026,-1.20043 c 1.49329,-0.89149 2.76978,-1.6209 2.83665,-1.6209 0.0669,0 1.04774,-0.54835 2.17972,-1.21855 1.13197,-0.6702 4.8561,-2.76751 8.27584,-4.66068 3.41974,-1.89318 9.01568,-5.01871 12.43542,-6.94563 9.80286,-5.52361 19.52339,-10.9334 25.21289,-14.03179 2.88027,-1.56853 5.40469,-3.09149 5.60982,-3.38436 0.28206,-0.4027 0.30332,-0.66759 0.0873,-1.08688 -0.15714,-0.30492 -2.08742,-2.39987 -4.2895,-4.65544 -3.40931,-3.49213 -9.20027,-9.55031 -15.64025,-16.36199 -1.87947,-1.98794 -2.80384,-2.53143 -3.98069,-2.34045 -0.47084,0.0764 -2.86343,1.20381 -5.31686,2.50534 -2.45343,1.30153 -6.84203,3.61935 -9.75245,5.15072 -22.65752,11.92168 -46.63155,24.66853 -46.94201,24.95879 -0.31859,0.29786 0.60509,1.36316 6.10726,7.04374 3.56544,3.68104 8.89093,9.19275 11.83443,12.24823 2.9435,3.05548 5.61258,5.70716 5.93128,5.89262 1.07148,0.6235 2.54923,0.21584 5.4112,-1.49277 z m -31.18153,-34.74742 c 1.24999,-0.64206 8.70208,-4.65577 16.5602,-8.91936 7.85813,-4.2636 15.06141,-8.17094 16.00729,-8.68298 6.34419,-3.43431 6.0288,-3.20414 6.12975,-4.47346 0.0505,-0.63466 0.0221,-1.15393 -0.063,-1.15393 -0.32807,0 -21.51393,11.37766 -34.64171,18.604 -8.24087,4.53628 -7.77639,4.45565 -12.1852,2.11503 -1.66559,-0.88426 -3.8564,-2.08973 -4.86847,-2.67884 -1.01207,-0.58911 -1.9348,-1.01259 -2.05052,-0.94107 -0.11572,0.0715 -0.21039,0.5228 -0.21039,1.00285 0,0.77824 0.16485,0.97369 1.52135,1.80374 2.11922,1.29677 7.09913,3.92559 8.24301,4.35137 1.48233,0.55175 3.04629,0.26266 5.55772,-1.02735 z m -3.94714,-16.549 -0.002,-13.69219 -1.51922,-0.8103 c -6.08332,-3.24463 -10.20743,-5.47636 -13.4255,-7.26509 -1.19033,-0.66163 -4.83058,-2.60769 -11.24479,-6.01141 -1.23693,-0.65637 -2.96333,-1.58188 -3.83646,-2.05668 -2.08058,-1.13141 -13.86934,-7.27215 -13.96079,-7.27215 -0.14987,0 -0.21883,20.45299 -0.0712,21.12158 0.14416,0.6529 0.26094,0.70772 1.53775,0.72194 1.26779,0.0141 2.02555,0.36198 9.18696,4.21746 4.29287,2.31115 10.09834,5.39985 12.90106,6.86379 2.80272,1.46393 5.61718,3.07841 6.25437,3.58774 2.21295,1.76887 3.03993,3.55755 3.05821,6.61458 l 0.0118,1.98437 5.09298,2.83568 c 2.80114,1.55962 5.30133,2.83954 5.556,2.84427 0.43514,0.008 0.46289,-0.81573 0.46088,-13.68359 z m -8.99369,0.008 c -2.40582,-0.90401 -3.76609,-4.47075 -2.37803,-6.23539 1.76492,-2.24373 6.08219,0.23704 6.08219,3.49493 0,2.04468 -1.87134,3.42916 -3.70416,2.74046 z m 1.47305,-2.77575 c 0.23497,-0.74031 -0.6901,-1.92813 -1.50161,-1.92813 -0.93544,0 -1.01448,1.22997 -0.13552,2.10894 0.73279,0.73278 1.36949,0.66246 1.63713,-0.18081 z M 90.3562,155.51021 c -0.77876,-0.4205 -4.69015,-2.49193 -8.69197,-4.60316 -9.55291,-5.03982 -10.19436,-5.41486 -10.61923,-6.20875 -0.27271,-0.50956 -0.36098,-2.06137 -0.36098,-6.34635 v -5.67186 l 0.65737,-0.53231 c 0.47755,-0.3867 0.91383,-0.4979 1.59493,-0.40655 0.76881,0.10312 13.48464,6.6762 19.01891,9.83127 2.49851,1.42439 2.5287,1.51064 2.62364,7.49448 0.0453,2.85481 0.0138,5.46368 -0.07,5.79749 -0.16209,0.64583 -1.36617,1.41029 -2.22132,1.41029 -0.28349,0 -1.15261,-0.34405 -1.93137,-0.76455 z m 0.2454,-7.20543 -0.0738,-3.47207 -1.85209,-1.05108 c -2.20307,-1.25026 -14.16966,-7.61521 -14.31717,-7.61521 -0.0564,0 -0.10262,1.53324 -0.10262,3.40719 0,2.84017 0.0725,3.46762 0.43571,3.77031 0.52451,0.43715 15.48358,8.43226 15.7777,8.43265 0.11337,1.5e-4 0.1729,-1.56216 0.13229,-3.47179 z m 11.69005,5.258 c -1.56877,-0.79108 -2.45431,-2.42575 -2.29476,-4.23601 0.19834,-2.25026 1.75524,-3.07896 3.95578,-2.10556 1.32055,0.58415 2.10547,1.53185 2.5784,3.11315 0.44685,1.49411 -0.1374,2.89496 -1.4332,3.43638 -1.21737,0.50865 -1.41405,0.49408 -2.80622,-0.20796 z m 2.01858,-2.44932 c 0.24829,-0.98926 -0.52666,-2.03658 -1.42976,-1.93228 -0.51037,0.059 -0.73546,0.25445 -0.79759,0.69273 -0.21844,1.5411 1.86119,2.69845 2.22735,1.23955 z m -11.26892,17.95661 c 0,-2.68757 0.28068,-2.35993 -3.96875,-4.63281 -1.67349,-0.89509 -4.29286,-2.30724 -5.82083,-3.1381 -2.2585,-1.22811 -7.827,-4.14709 -11.99985,-6.29025 -0.41528,-0.21329 -1.06293,-0.3878 -1.43922,-0.3878 -1.4995,0 -2.22262,2.36222 -1.04687,3.41981 0.32742,0.29451 2.91703,1.78973 5.75469,3.32269 13.48612,7.28552 17.61432,9.54288 17.84614,9.75856 0.55176,0.51331 0.67469,0.13941 0.67469,-2.0521 z m 50.77218,-9.5258 c 10.84671,-5.77135 10.61115,-5.62468 10.61115,-6.60672 v -0.90065 l -1.38906,0.764 c -0.76399,0.4202 -3.65125,1.98522 -6.41615,3.47783 -7.03175,3.79603 -6.79679,3.64172 -6.47129,4.2499 0.14971,0.27975 0.40433,0.50863 0.56581,0.50863 0.16148,0 1.55628,-0.67185 3.09954,-1.49299 z m 21.89648,-2.30808 c 0.0223,-0.0195 0.28647,-1.99992 0.58704,-4.40101 0.30058,-2.4011 0.73304,-5.85391 0.96105,-7.67292 1.87376,-14.94904 2.36993,-19.1026 4.10878,-34.39584 1.72172,-15.142555 2.1899,-19.585256 2.07592,-19.699228 -0.0935,-0.09351 -5.49673,-2.720358 -31.45353,-15.29155 -2.4011,-1.162879 -7.15062,-3.469267 -10.55449,-5.12531 -5.87958,-2.860516 -6.64343,-3.191267 -6.64343,-2.87664 0,0.07389 -0.23426,1.830059 -0.52057,3.902604 -0.43948,3.181268 -2.65199,20.63089 -3.02076,23.824159 l -0.11616,1.005901 1.95172,0.96574 c 1.07345,0.531156 2.00539,0.911936 2.07098,0.846182 0.14455,-0.144915 3.07437,-21.947102 3.07437,-22.877832 0,-0.361542 0.0893,-0.657259 0.19844,-0.657151 0.10914,1.11e-4 1.80578,0.788213 3.77031,1.751336 1.96453,0.963122 10.65243,5.193159 19.30644,9.400084 8.65402,4.206922 15.99537,7.819834 16.31413,8.028691 0.47029,0.308144 0.55795,0.568613 0.46497,1.381487 -0.063,0.550961 -0.52852,4.430226 -1.03444,8.620587 -0.50592,4.19036 -0.91985,7.9706 -0.91985,8.40052 0,0.42992 -0.10194,0.78167 -0.22654,0.78167 -0.1246,0 -1.37475,-0.60447 -2.77813,-1.34327 -2.0396,-1.07375 -2.55045,-1.45864 -2.54593,-1.91823 0.003,-0.31623 0.35918,-3.01573 0.79129,-5.99891 0.4321,-2.98317 0.78674,-5.63212 0.7881,-5.886543 0.002,-0.340733 -1.73351,-1.329428 -6.5877,-3.753331 -6.21267,-3.10225 -6.59802,-3.257619 -6.72733,-2.712413 -0.0754,0.318082 -0.28721,1.751441 -0.47059,3.185239 -0.19147,1.497007 -0.46826,2.658647 -0.65012,2.728434 -0.17418,0.06684 -0.75023,-0.05961 -1.2801,-0.281012 -0.52988,-0.221395 -1.14494,-0.332883 -1.3668,-0.247745 -0.75641,0.290264 -0.24215,1.003038 1.23444,1.710936 l 1.47424,0.706773 -0.35173,2.053672 c -0.19346,1.12951 -0.39892,2.10085 -0.4566,2.15852 -0.0848,0.0848 -6.96048,-3.23465 -7.25756,-3.5038 -0.13931,-0.126221 0.81464,-7.482579 1.01166,-7.801368 0.12474,-0.201826 0.65106,-0.08575 1.68546,0.371708 2.41053,1.066046 3.25928,0.186529 1.06974,-1.108519 -2.4273,-1.435682 -2.48642,-1.532538 -2.17601,-3.564996 0.2086,-1.365766 0.19596,-1.882391 -0.0534,-2.182812 -0.53494,-0.644557 -1.0225,-0.450226 -1.16997,0.466322 -0.46172,2.869552 -1.22504,8.106918 -1.50392,10.31875 -0.17889,1.418828 -0.40662,2.579687 -0.50606,2.579687 -0.0995,0 -1.32902,-0.604475 -2.73239,-1.343276 -2.90195,-1.527728 -2.75472,-1.201407 -2.26992,-5.0308 0.39181,-3.094866 0.23664,-2.904212 2.01741,-2.478752 1.86742,0.446167 1.93426,0.450794 1.93426,0.133959 0,-0.138711 -0.50602,-0.488937 -1.12448,-0.77828 -2.1757,-1.017881 -2.16533,-0.996048 -1.8387,-3.871428 0.30409,-2.677025 0.25036,-3.167729 -0.37304,-3.406952 -0.5138,-0.197163 -0.82169,0.671679 -1.08763,3.069235 -0.23172,2.089023 -0.0809,1.952516 -1.92615,1.742895 -0.50109,-0.05693 -0.68076,0.06005 -0.74107,0.482494 -0.0583,0.408284 0.13423,0.646216 0.71883,0.888362 1.35388,0.560795 1.404,0.744498 1.06131,3.889904 -0.17175,1.576401 -0.3865,2.946646 -0.47723,3.044995 -0.0907,0.09835 -0.63271,-0.05048 -1.2044,-0.33073 -1.37123,-0.672195 -1.73869,-0.643577 -1.73869,0.135404 0,0.503393 0.29674,0.80645 1.35203,1.380812 l 1.35203,0.735867 -0.17656,2.023952 c -0.17002,1.949087 -0.15439,2.029747 0.42236,2.180567 0.32939,0.0861 0.64704,0.10848 0.70588,0.0496 0.0588,-0.0588 0.16986,-0.89033 0.24671,-1.847764 0.13036,-1.623981 0.17722,-1.728986 0.69833,-1.564947 0.95204,0.299693 4.51165,2.242911 4.81462,2.628341 0.20052,0.25509 0.20868,0.79909 0.027,1.80132 -0.29983,1.65422 -0.14262,2.28602 0.56883,2.28602 0.51586,0 0.82709,-1.01956 0.83376,-2.73138 0.002,-0.46582 0.1274,-0.7148 0.33364,-0.66146 0.1819,0.047 1.91624,0.90207 3.85409,1.90004 l 3.52336,1.81449 -0.18198,2.32623 c -0.17021,2.17583 -0.14673,2.34509 0.36319,2.61799 0.69428,0.37157 0.76626,0.2361 0.97533,-1.83553 0.0949,-0.94083 0.21915,-1.85962 0.27603,-2.04176 0.0675,-0.21622 3.13998,1.20256 8.85115,4.08722 l 8.74775,4.41839 -0.14357,1.07215 c -0.82921,6.19263 -2.58528,21.67584 -3.3025,29.11799 -0.29451,3.05594 -0.71355,7.40172 -0.9312,9.65729 -0.21765,2.25557 -0.39714,4.2512 -0.39885,4.43472 -0.002,0.20638 0.82967,-0.083 2.1797,-0.75836 1.20055,-0.60062 2.20106,-1.10796 2.22335,-1.12743 z m -11.77422,-50.07664 -5.09679,-2.61083 0.16599,-1.85208 c 0.27969,-3.120811 -0.0344,-3.047148 3.99741,-0.9376 1.95899,1.025 3.78205,1.86364 4.05123,1.86364 0.68004,0 0.96728,-0.85438 0.40029,-1.19063 -1.56495,-0.92807 -1.56046,-0.91517 -1.20412,-3.462453 0.18095,-1.29345 0.3679,-2.390629 0.41545,-2.438177 0.0707,-0.07071 3.79674,1.702432 4.05343,1.92895 0.11485,0.101351 -1.29719,10.2461 -1.50545,10.81584 -0.16206,0.44335 -0.70474,0.22569 -5.27744,-2.11666 z m -2.02465,-7.580845 c -1.16417,-0.613471 -2.11319,-1.234463 -2.10894,-1.379984 0.0546,-1.869149 0.50174,-4.425439 0.79375,-4.537493 0.19588,-0.07517 1.31514,0.362249 2.48723,0.972039 1.80333,0.938192 2.11327,1.195898 2.01532,1.675622 -0.0637,0.311804 -0.19034,1.162228 -0.28149,1.889832 -0.21716,1.733566 -0.4106,2.515629 -0.61945,2.504459 -0.0934,-0.005 -1.12225,-0.511 -2.28642,-1.124475 z M 61.68174,158.45757 c -0.15722,-0.91142 -0.99641,-7.69945 -1.72544,-13.95677 -0.45569,-3.91126 -1.83777,-13.85869 -3.74538,-26.9572 -0.28362,-1.94746 -0.26994,-2.11149 0.20546,-2.46361 0.28012,-0.20749 2.5929,-1.51784 5.13952,-2.91189 2.54661,-1.39406 5.51407,-3.05699 6.59436,-3.69541 1.27091,-0.75108 2.02717,-1.05879 2.14272,-0.87183 0.0982,0.15892 0.33015,1.32314 0.5154,2.58715 0.18525,1.26401 0.39131,2.39139 0.45791,2.50527 0.0666,0.11389 0.49862,-0.0256 0.96004,-0.30985 0.46142,-0.2843 1.46402,-0.83023 2.228,-1.21318 1.27243,-0.63779 1.38907,-0.77284 1.38907,-1.60837 0,-0.88013 -0.5385,-1.2746 -0.91293,-0.66876 -0.0827,0.13384 -0.67035,0.53396 -1.30585,0.88915 l -1.15544,0.64579 -0.30254,-1.83193 c -0.16639,-1.00756 -0.24212,-1.92969 -0.16827,-2.04917 0.0738,-0.11949 1.76098,-1.13184 3.74918,-2.24967 2.65939,-1.49519 3.66956,-1.94403 3.82161,-1.698 0.11368,0.18394 0.41529,1.44194 0.67024,2.79558 0.25495,1.35363 0.55103,2.46114 0.65796,2.46114 1.11361,0 1.27917,-0.92422 0.63987,-3.57187 -0.62734,-2.59812 -0.57504,-2.81302 0.88404,-3.6325 1.54038,-0.865136 1.95328,-1.315552 1.73276,-1.890217 -0.22994,-0.599199 -0.5239,-0.545835 -2.00149,0.363339 -0.70951,0.436563 -1.32736,0.79375 -1.37302,0.79375 -0.0457,0 -0.48837,-2.026226 -0.98382,-4.502724 -1.01221,-5.059476 -0.99776,-5.169058 0.76809,-5.825672 1.61122,-0.599114 1.8229,-0.909836 0.99111,-1.454843 -0.64816,-0.424693 -0.77117,-0.426355 -1.82306,-0.02463 -0.62041,0.236935 -1.19811,0.43079 -1.28378,0.43079 -0.0857,0 -0.23571,-0.506016 -0.33341,-1.12448 -0.33542,-2.123424 -0.73579,-3.108854 -1.2631,-3.108854 -0.73598,0 -0.80161,0.483249 -0.35437,2.609358 0.2225,1.057735 0.39914,2.123728 0.39254,2.368878 -0.007,0.27001 -0.55362,0.706483 -1.38588,1.107181 -1.60944,0.774872 -2.70351,2.245426 -1.89997,2.553771 0.25449,0.09766 0.75916,-0.02307 1.14834,-0.27473 1.16892,-0.755846 2.39991,-1.323096 2.54859,-1.174416 0.13511,0.135109 1.48902,6.193665 1.82934,8.186035 l 0.16335,0.956284 -2.93069,1.64119 c -1.61188,0.90265 -3.32777,1.87547 -3.81309,2.16181 l -0.88241,0.52064 -0.41309,-1.92748 c -0.69438,-3.240056 -0.71258,-3.125415 0.62044,-3.908632 1.46068,-0.858232 1.57248,-1.466368 0.26458,-1.439185 -0.50932,0.01058 -1.10743,0.102272 -1.32914,0.20375 -0.33673,0.154128 -0.50698,-0.437015 -1.03412,-3.590618 -0.34707,-2.076317 -0.68558,-3.983709 -0.75224,-4.238646 -0.14906,-0.570002 -1.07706,-0.613066 -1.28935,-0.05983 -0.1293,0.336947 0.70223,6.334636 1.14114,8.230807 0.11258,0.486349 -0.26686,0.784788 -2.73456,2.150844 -1.5759,0.87237 -3.61452,2.01366 -4.53027,2.5362 -1.11064,0.63374 -1.69873,0.84259 -1.7663,0.62728 -0.25734,-0.82003 -0.64469,-3.743631 -0.5137,-3.877243 0.0807,-0.08234 1.4181,-0.870304 2.97193,-1.751036 2.08634,-1.182566 2.8473,-1.753709 2.90986,-2.183995 0.14765,-1.01568 -0.58096,-0.900864 -3.01171,0.474588 -1.30057,0.735928 -2.87068,1.597271 -3.48914,1.914097 -0.77527,0.39715 -1.12289,0.74455 -1.11936,1.118637 0.003,0.298423 0.41866,2.983372 0.92409,5.966552 0.50544,2.98317 0.91784,5.66207 0.91643,5.95312 -0.002,0.38222 -0.51407,0.80522 -1.84461,1.52327 -1.83041,0.98782 -1.8429,0.99033 -1.97382,0.39688 -0.17762,-0.80515 -1.84158,-11.70392 -2.40651,-15.762335 -0.26119,-1.876404 -0.35451,-3.352226 -0.21998,-3.478958 0.2409,-0.226936 15.19836,-9.29255 21.53261,-13.050766 6.40891,-3.802515 7.52875,-4.424746 7.80117,-4.334676 0.25096,0.08298 3.06377,12.087277 5.32113,22.709154 l 0.99274,4.671321 2.0559,-1.09945 c 1.67096,-0.89359 2.035,-1.19852 1.94427,-1.62861 C 92.40033,99.993361 88.01321,80.819902 87.18311,77.279187 L 86.3106,73.55756 83.51887,72.450536 c -1.53546,-0.608862 -2.93865,-1.107022 -3.1182,-1.107022 -0.27488,0 -12.04013,7.222161 -21.27885,13.062124 -1.4115,0.892238 -4.269,2.665521 -6.35,3.940627 -2.081,1.275106 -4.1111,2.584794 -4.51135,2.910416 l -0.72771,0.59204 0.51188,3.307292 c 0.28153,1.81901 1.29713,8.784167 2.25688,15.478117 1.78898,12.47754 6.66632,45.08838 6.88545,46.03751 0.0813,0.35194 0.81116,0.85326 2.17941,1.49688 1.13147,0.53224 2.14355,0.97872 2.24905,0.99218 0.1055,0.0135 0.13534,-0.30294 0.0663,-0.70313 z M 60.7705,109.38828 c -0.16762,-0.76999 -0.37206,-1.95156 -0.45432,-2.6257 l -0.14955,-1.22572 1.9514,-1.12725 c 1.07328,-0.61999 3.01372,-1.76506 4.31211,-2.54459 1.29838,-0.77954 2.44937,-1.41734 2.55776,-1.41734 0.2182,0 0.72044,2.11055 0.95016,3.99283 l 0.14825,1.21472 -3.40531,1.93364 c -1.87292,1.06351 -3.90041,2.21844 -4.50552,2.56652 l -1.10022,0.63288 z m 61.77185,47.60858 3.43958,-1.91272 0.0771,-2.35711 c 0.0424,-1.29641 -0.0393,-2.47346 -0.18149,-2.61567 -0.16836,-0.16835 -1.46444,0.40594 -3.71509,1.64614 l -3.45652,1.90469 v 2.6292 c 0,1.44606 0.0893,2.62672 0.19844,2.6237 0.10914,-0.003 1.74625,-0.86623 3.63802,-1.91823 z m 14.37226,-4.12817 c 1.55411,-0.85469 4.84972,-2.63118 7.32357,-3.94775 2.47386,-1.31657 5.39089,-2.87149 6.48229,-3.45536 1.41059,-0.75463 2.00998,-1.22856 2.07293,-1.63902 0.15886,-1.03599 -0.33478,-1.10432 -1.83219,-0.25361 -0.78725,0.44725 -4.93706,2.69449 -9.2218,4.99386 -4.28474,2.29937 -7.90533,4.36282 -8.04575,4.58544 -0.24794,0.39306 -0.0849,1.27043 0.23609,1.27043 0.0876,0 1.43076,-0.6993 2.98486,-1.55399 z m -92.12654,-3.47085 c 2.63482,-1.20941 2.87276,-1.37836 2.82449,-2.00559 -0.0509,-0.6609 -1.90794,-6.90074 -3.55753,-11.95343 -0.43946,-1.34607 -0.9293,-2.4474 -1.08852,-2.4474 -0.45302,0 -19.77519,8.78664 -19.77519,8.99265 0,0.10096 1.99429,1.11458 4.43177,2.2525 8.21079,3.83316 13.95571,6.46696 14.12227,6.47448 0.091,0.004 1.46025,-0.58684 3.04271,-1.31321 z m 138.68256,0.68102 c 0.83236,-0.35181 3.47792,-1.58121 5.87901,-2.73199 2.40109,-1.15078 5.88336,-2.79207 7.73836,-3.6473 1.85501,-0.85523 3.28376,-1.64367 3.175,-1.75208 -0.27754,-0.27668 -18.46184,-8.45905 -19.55387,-8.79864 -0.49905,-0.15519 -0.62229,-0.0184 -0.98131,1.08932 -0.78921,2.43492 -3.87186,13.31654 -3.86415,13.64025 0.007,0.27451 5.26025,2.80018 5.88717,2.83021 0.11353,0.005 0.88743,-0.27796 1.71979,-0.62977 z m -61.87894,-2.13847 c 3.58355,-1.89867 3.98812,-2.18269 3.92805,-2.75772 -0.0368,-0.35259 -0.18705,-0.68035 -0.33382,-0.72837 -0.38058,-0.12451 -7.58045,3.81556 -8.12041,4.44383 -0.48475,0.56404 -0.35951,1.36737 0.19302,1.23806 0.18598,-0.0435 2.1359,-1.03164 4.33316,-2.1958 z m 21.5917,-3.43959 c 5.01698,-2.69214 9.24148,-4.89479 9.38777,-4.89479 0.14629,0 0.26598,-0.41672 0.26598,-0.92604 0,-0.50933 -0.0693,-0.92605 -0.15391,-0.92605 -0.31122,0 -17.46926,9.34435 -18.30078,9.96669 -0.80778,0.60458 -1.18506,1.67498 -0.59037,1.67498 0.14824,0 4.37433,-2.20265 9.39131,-4.89479 z m -29.04483,1.3137 c 0.53456,-0.22335 2.94175,-1.49375 5.34931,-2.82311 26.27392,-14.50734 26.21423,-14.47461 30.30656,-16.61922 3.65809,-1.91703 4.36613,-2.47105 4.36431,-3.41489 -0.002,-1.2395 -1.10713,-2.08801 -6.34868,-4.87615 -7.05543,-3.75299 -13.88592,-7.42697 -24.20938,-13.02168 -11.8532,-6.423765 -11.59125,-6.300606 -12.65441,-5.949732 -0.47675,0.157343 -5.74221,2.941532 -11.701,6.187092 -5.95879,3.24555 -14.16792,7.66647 -18.2425,9.82425 -10.25082,5.42855 -10.51207,5.57552 -11.14823,6.27184 -0.9221,1.00929 -1.01879,1.73536 -0.31385,2.35695 0.33779,0.29786 2.22151,1.37991 4.18604,2.40456 4.4021,2.29603 21.90181,11.6439 30.82396,16.46533 7.08165,3.82685 7.63432,4.011 9.58787,3.19476 z m -4.95767,-5.38093 c -2.1345,-1.21124 -14.99419,-8.21122 -21.82812,-11.88182 -1.74625,-0.93793 -3.38336,-1.88897 -3.63802,-2.11342 -0.61585,-0.54278 -0.58645,-1.30284 0.0661,-1.71039 0.4695,-0.29321 0.52917,-0.61702 0.52917,-2.87165 0,-2.08943 0.0823,-2.61322 0.46302,-2.94638 0.48802,-0.42708 3.12086,-1.94035 7.73906,-4.44816 7.32143,-3.97574 14.39749,-7.85464 16.70779,-9.15875 l 2.55258,-1.44087 4.19429,2.29397 c 2.30686,1.26168 5.32538,2.91858 6.70783,3.682 1.38245,0.76341 5.01386,2.73033 8.06979,4.37093 3.05594,1.64059 6.18133,3.38385 6.94532,3.87389 l 1.38906,0.89099 v 2.4321 c 0,2.36678 0.0222,2.45506 0.82875,3.28715 1.37145,1.41498 1.64563,1.18613 -7.31104,6.10225 -3.05594,1.67734 -8.29469,4.57 -11.64167,6.42812 -7.53185,4.18144 -8.1657,4.50072 -8.91914,4.49268 -0.33322,-0.004 -1.61788,-0.58074 -2.85481,-1.28264 z m 2.4432,-3.6817 c 0.34406,-1.3157 0.86221,-0.9905 -16.33382,-10.25135 -2.47385,-1.33229 -5.48018,-2.96869 -6.68073,-3.63645 l -2.18281,-1.21411 v 1.02283 c 0,0.98304 0.0643,1.05754 1.65365,1.9156 5.94316,3.20864 16.00434,8.68442 19.24843,10.47594 2.11005,1.16525 3.91187,2.12804 4.00404,2.13953 0.0922,0.0115 0.22323,-0.1919 0.29124,-0.45199 z m 12.56905,-9.25055 c 6.39755,-3.60164 11.90883,-6.73579 12.2473,-6.96477 0.6101,-0.41275 0.59509,-0.42776 -1.74656,-1.74679 -1.29907,-0.73175 -3.43351,-1.89935 -4.7432,-2.59466 -1.30968,-0.69532 -3.09562,-1.65292 -3.96875,-2.12801 -0.87312,-0.47509 -3.79015,-2.05394 -6.48229,-3.50854 -2.69213,-1.4546 -5.54759,-3.00885 -6.34546,-3.45389 l -1.45068,-0.80915 -1.32745,0.73706 c -0.73009,0.40537 -2.99432,1.66376 -5.03161,2.79642 -3.18948,1.77322 -13.40622,7.32293 -17.05958,9.26672 -0.65152,0.34664 -1.21795,0.73038 -1.25874,0.85276 -0.0662,0.19871 2.09456,1.44058 10.51311,6.04216 4.58368,2.50545 14.90221,8.05353 14.98548,8.05742 0.0201,0.001 5.27088,-2.94509 11.66843,-6.54673 z m -14.74766,2.4797 c -2.18515,-1.22178 -13.11649,-7.19661 -16.73267,-9.1457 -0.69,-0.3719 -1.25459,-0.73572 -1.25463,-0.80848 -5e-5,-0.0728 0.68355,-0.49679 1.51912,-0.94229 4.01464,-2.14048 16.97769,-9.34477 17.65153,-9.80993 0.85922,-0.59314 1.39334,-0.43742 4.60637,1.34302 4.23435,2.34638 9.27025,5.07218 13.58834,7.35502 1.99945,1.05704 3.63656,2.00986 3.63802,2.11737 0.002,0.10752 -0.92007,0.67031 -2.04786,1.25065 -1.12778,0.58034 -2.70536,1.424 -3.50572,1.8748 -0.80037,0.4508 -3.18162,1.785 -5.29167,2.9649 -2.11005,1.1799 -5.07187,2.83788 -6.58181,3.68441 -1.50995,0.84652 -2.81964,1.5352 -2.91042,1.53038 -0.0908,-0.005 -1.29615,-0.64117 -2.6786,-1.41415 z m 20.72677,-9.66766 c 0.91749,-0.46777 0.94997,-0.5215 0.41738,-0.69054 -0.31764,-0.10081 -1.24619,-0.56701 -2.06344,-1.03599 -0.81726,-0.46898 -3.45045,-1.90891 -5.85155,-3.19983 -2.40109,-1.29093 -5.73484,-3.0966 -7.40833,-4.01261 -1.67349,-0.91601 -3.10538,-1.66566 -3.18199,-1.66589 -0.0766,-2.2e-4 -0.0956,0.45719 -0.0423,1.01647 0.0862,0.90338 0.24935,1.10861 1.4622,1.83872 2.31784,1.3953 15.10724,8.25075 15.39834,8.25392 0.15114,0.002 0.7225,-0.22527 1.2697,-0.50425 z m -34.86875,0.002 c 0.13824,-0.13256 3.10885,-1.78533 6.60135,-3.67283 9.96762,-5.38694 9.53196,-5.10618 9.48392,-6.11198 -0.0226,-0.4731 -0.10064,-0.91974 -0.17344,-0.99253 -0.0728,-0.0728 -0.59009,0.15594 -1.14954,0.50831 -1.20367,0.75813 -7.17085,4.08481 -10.54219,5.87723 -3.12888,1.66351 -6.2177,3.55992 -6.2177,3.81741 0,0.22 1.00878,0.76785 1.46843,0.79748 0.1528,0.01 0.39093,-0.0905 0.52917,-0.22309 z m 48.27323,18.95102 c 7.40062,-3.96395 9.14488,-5.00107 9.21667,-5.48012 0.15128,-1.00955 -0.33745,-1.16241 -1.44803,-0.45289 -0.56197,0.35902 -4.53411,2.53243 -8.82698,4.82978 -9.20893,4.92821 -8.69904,4.62914 -8.88357,5.21056 -0.1811,0.57057 0.10195,1.0739 0.50981,0.9066 0.16719,-0.0686 4.41163,-2.32485 9.4321,-5.01393 z m 36.37309,-29.82246 c 1.07741,-4.00182 2.45547,-9.18104 3.06235,-11.509371 0.60687,-2.328333 1.50663,-5.781145 1.99946,-7.672916 l 0.89606,-3.439583 -4.95975,-4.818221 c -2.72787,-2.650019 -5.01939,-4.82291 -5.09228,-4.828646 -0.11803,-0.0093 -1.61114,6.215004 -1.59413,6.645365 0.004,0.09542 0.80327,0.546185 1.77665,1.001686 1.97419,0.923832 3.6505,2.49828 3.90796,3.670472 0.0934,0.425209 -0.0681,2.723575 -0.35896,5.107476 -0.29082,2.383901 -0.65896,5.584524 -0.81809,7.112488 -0.15912,1.52797 -0.57755,5.15938 -0.92984,8.06979 -0.65083,5.37695 -1.47149,13.27685 -1.42924,13.75833 0.0128,0.14553 0.37369,-1.10463 0.80205,-2.77812 0.42835,-1.67349 1.66034,-6.31693 2.73776,-10.31875 z m -117.42205,9.48285 c 1.13896,-0.60526 2.27919,-1.27856 2.53386,-1.49622 0.5715,-0.48846 0.62202,-2.23364 0.0777,-2.68536 -0.53807,-0.44655 -0.93763,-0.11562 -0.93763,0.77659 0,0.6656 -0.25061,0.89953 -2.11667,1.97587 -1.74615,1.00718 -2.11667,1.33544 -2.11667,1.87524 0,0.35989 0.10992,0.65435 0.24427,0.65435 0.13435,0 1.17614,-0.49521 2.31511,-1.10047 z m 98.51145,-0.76364 c 0,-0.48169 -1.20826,-1.50846 -2.61241,-2.22 -0.92399,-0.46821 -1.35634,-0.84958 -1.35634,-1.1964 0,-0.67833 -0.4582,-0.92859 -0.95114,-0.51949 -0.2386,0.19802 -0.3668,0.65887 -0.31914,1.14726 0.0709,0.72692 0.31137,0.93715 2.19633,1.92035 2.13916,1.11581 3.0427,1.37364 3.0427,0.86828 z M 43.83097,108.21977 c -0.44751,-3.03772 -1.22639,-8.15764 -1.73083,-11.377589 -0.50443,-3.219953 -0.91716,-6.402996 -0.91716,-7.073431 0,-1.95131 0.0482,-1.991688 9.5877,-8.02853 2.45365,-1.552742 2.84129,-1.89448 2.84427,-2.507522 0.002,-0.512228 -0.16224,-0.755857 -0.59186,-0.87534 -0.32743,-0.09106 -1.39634,-0.417589 -2.37538,-0.725617 -1.59866,-0.502975 -1.82784,-0.519208 -2.24895,-0.159287 -0.2579,0.220422 -2.75918,2.333522 -5.55841,4.69578 -2.79923,2.362261 -5.15312,4.397936 -5.23086,4.523724 -0.12133,0.196323 1.82741,8.141877 3.56844,14.549472 0.29655,1.09141 1.16183,4.45885 1.92285,7.48321 0.76102,3.02436 1.41971,5.3907 1.46377,5.25855 0.0441,-0.13216 -0.28606,-2.7257 -0.73358,-5.76342 z m 56.50276,-10.61624 1.48331,-0.727482 -0.15177,-1.323039 c -0.60989,-5.316749 -2.05503,-17.199601 -2.09682,-17.241392 -0.1837,-0.183695 -6.61954,-2.465983 -6.70705,-2.378464 -0.19709,0.197083 1.21015,5.852038 1.47855,5.941502 0.8679,0.289301 1.57983,1.205537 1.73746,2.236054 1.03769,6.784327 2.43664,14.220303 2.67529,14.220303 0.0538,0 0.76521,-0.327366 1.58103,-0.727482 z"
       id="path1226"
       sodipodi:nodetypes="sssssscssssssscssssssscccsssscssssssssscsccsssssssssssssssssssssscsssssssssssscscsssssssscssscssscscssscsscscscssssssssssscccccsccccssssscsssssssssssssssssssssssssscsssssssssssssssscccsssssssssssccccssssssssssccscccsssssssscssscsssscsccccssscsscssssssscsssssssscsssscssssscscssssssscsssssssssssscscscssssscssssssscssssssssssssssssssscsccssscsccscsscsscssscsccscssssssssssssscssssssssssssccssscscsssssssssssssscsscsscsscsscssssscssssscscsscscssssssscssscssssscsscscsssscsssscsscsccssscssccsssssssssscsssscsssssssccsscsssssssssssscscsssssssssscssssssscsssscscsccccssscscsssssssssscssscscsssssssscsssscssssssscscssssssssscssssssssssscsscsscsssssssssssssssssscsssssscssssssscsscsscscss" /></g></svg>
