<?xml version="1.0" encoding="UTF-8" standalone="no"?>
<!-- Created with Inkscape (http://www.inkscape.org/) -->

<svg
   width="100mm"
   height="100mm"
   viewBox="0 0 100 99.999999"
   version="1.1"
   id="svg685"
   inkscape:version="1.2.2 (b0a8486541, 2022-12-01)"
   sodipodi:docname="logo.svg"
   xmlns:inkscape="http://www.inkscape.org/namespaces/inkscape"
   xmlns:sodipodi="http://sodipodi.sourceforge.net/DTD/sodipodi-0.dtd"
   xmlns="http://www.w3.org/2000/svg"
   xmlns:svg="http://www.w3.org/2000/svg">
  <sodipodi:namedview
     id="namedview687"
     pagecolor="#ffffff"
     bordercolor="#000000"
     borderopacity="0.25"
     inkscape:showpageshadow="2"
     inkscape:pageopacity="0.0"
     inkscape:pagecheckerboard="0"
     inkscape:deskcolor="#d1d1d1"
     inkscape:document-units="mm"
     showgrid="false"
     inkscape:zoom="0.5946522"
     inkscape:cx="209.36608"
     inkscape:cy="147.98566"
     inkscape:window-width="1230"
     inkscape:window-height="1428"
     inkscape:window-x="0"
     inkscape:window-y="0"
     inkscape:window-maximized="1"
     inkscape:current-layer="layer1" />
  <defs
     id="defs682" />
  <g
     inkscape:label="Layer 1"
     inkscape:groupmode="layer"
     id="layer1"
     transform="translate(-164.34255,-128.03236)">
    <path
       style="fill:#ffffff;stroke-width:1;stroke:#000000;stroke-dasharray:none;opacity:1;fill-opacity:0.69999999"
       d="m 176.6643,214.68822 c 0,-0.0946 10.56679,-10.75692 23.48177,-23.69411 12.91497,-12.93719 23.5413,-23.58591 23.61406,-23.66382 0.0728,-0.0779 -1.84133,-0.10142 -4.25353,-0.0522 -4.22754,0.0862 -4.42328,0.11458 -5.42395,0.78673 -1.05907,0.71136 -5.76396,5.3285 -27.16575,26.65905 l -12.10468,12.06439 7.9e-4,-6.21663 7.9e-4,-6.21663 16.20488,-16.20442 c 8.9128,-8.91243 16.62171,-16.51221 17.13103,-16.88838 1.52169,-1.1239 3.86294,-2.21252 5.62239,-2.61428 0.90951,-0.20768 3.67772,-0.4556 6.15157,-0.55094 7.52293,-0.2899 9.85618,-1.13265 13.68722,-4.94368 1.27604,-1.26937 2.32007,-2.4333 2.32007,-2.5865 0,-0.19376 -8.73678,-0.25634 -28.69841,-0.20559 l -28.69841,0.073 1.24789,-1.27658 c 3.66044,-3.74459 8.93507,-6.39245 14.74164,-7.4003 2.71402,-0.47108 16.25161,-0.63185 43.56524,-0.51739 l 15.78398,0.0661 -0.0936,16.34365 c -0.10433,18.20441 -0.21049,19.63556 -1.86721,25.16987 -1.13808,3.80181 -3.74432,9.18363 -5.96623,12.32008 -0.92425,1.30468 -2.81156,3.51832 -4.194,4.91921 -8.8329,8.95069 -20.25037,13.56754 -36.21614,14.6446 l -1.95259,0.13172 0.62968,-0.68335 c 0.34632,-0.37584 2.80899,-2.84076 5.4726,-5.47759 l 4.84292,-4.79424 2.16854,-0.45735 c 7.57934,-1.59854 13.08955,-4.53201 18.10777,-9.64004 4.92003,-5.00808 7.88483,-10.77475 9.22777,-17.94844 0.34847,-1.86149 0.46769,-4.41697 0.54617,-11.70781 0.0552,-5.12961 2.1e-4,-9.32656 -0.12223,-9.32656 -0.35786,0 -6.26774,6.05319 -7.79231,7.98127 -0.76696,0.96995 -2.16822,3.17261 -3.11391,4.89479 -0.94568,1.72217 -2.15502,3.7815 -2.68741,4.57626 -0.5327,0.79522 -10.22248,10.70031 -21.54776,22.02657 l -20.57982,20.58149 h -6.03542 c -3.31947,0 -6.03541,-0.0774 -6.03541,-0.17195 z"
       id="path365" />
  </g>
</svg>
